<?xml version="1.0" encoding="utf-8"?>
<!-- Generator: Adobe Illustrator 26.5.0, SVG Export Plug-In . SVG Version: 6.00 Build 0)  -->
<svg version="1.1" id="Layer_1" xmlns="http://www.w3.org/2000/svg" xmlns:xlink="http://www.w3.org/1999/xlink" x="0px" y="0px"
	 viewBox="0 0 384.7 385.1" style="enable-background:new 0 0 384.7 385.1;" xml:space="preserve">
<style type="text/css">
	.st0{fill:#797979;}
</style>
<path class="st0" d="M0,365.6c2.2,7.1,5.7,13.2,12.7,16.7c2.2,1.1,4.6,1.9,6.8,2.8c-6.5,0-13,0-19.5,0C0,378.6,0,372.1,0,365.6z"/>
<path class="st0" d="M259.7,151.2c11.8,0.7,22.2,4.5,31,12.5c3.6,3.2,4,6.3,1.5,9.1c-2.4,2.6-5.7,2.3-9.2-0.8
	c-14.1-12.4-35.5-12.5-49.7-0.2c-0.5,0.4-0.9,0.8-1.4,1.2c-2.6,2-5.8,2-7.8-0.1c-2.2-2.2-2.2-5.7,0.2-8.1
	c7.5-7.5,16.7-11.6,27.2-13.1C254.2,151.5,257,151.4,259.7,151.2z"/>
<path class="st0" d="M288.2,116.4c-2.9,3-5.1,5.6-7.5,7.9c-2.9,2.8-6.3,2.9-8.6,0.5c-2.2-2.3-2.1-5.6,0.6-8.3
	c2.4-2.4,4.9-4.6,8.1-7.6c-2.9-2.6-5.4-4.8-7.7-7.2c-3-3-3.3-6.5-0.8-8.9c2.5-2.4,5.5-2.1,8.6,0.8c2.4,2.2,4.7,4.5,7,6.8
	c0.1,0.1,0.2,0.1,1,0.3c2.2-2.3,4.5-4.9,6.9-7.4c2.8-2.8,5.9-2.9,8.3-0.5c2.4,2.3,2.4,5.5-0.3,8.3c-2.4,2.5-5.1,4.8-8.4,8
	c3,2.6,5.7,4.8,8.2,7.2c2.9,2.9,3,6.2,0.4,8.6c-2.3,2.2-5.6,2-8.3-0.6C293.3,122,291.1,119.4,288.2,116.4z"/>
<path class="st0" d="M235.4,109c3,2.8,5.6,5,8,7.4c2.9,2.9,3,6.2,0.6,8.6c-2.4,2.3-5.7,2-8.6-0.8c-1.2-1.1-2.3-2.3-3.4-3.4
	c-1.1-1.2-2.1-2.4-3.5-4c-2.7,2.7-5.1,5-7.4,7.3c-3.1,3-6.5,3.3-8.9,0.9c-2.4-2.4-2-5.8,1-8.9c2.3-2.3,4.6-4.5,7.4-7.1
	c-2.8-2.7-5.4-4.9-7.7-7.3c-2.9-2.9-3.1-6.2-0.7-8.6c2.5-2.5,5.6-2.3,8.6,0.6c2.4,2.4,4.6,4.9,7.3,7.9c2.9-3,5.2-5.6,7.7-8
	c2.8-2.8,5.9-3,8.3-0.7c2.5,2.3,2.4,5.7-0.4,8.6c-1.2,1.3-2.4,2.5-3.7,3.7C238.6,106.3,237.4,107.3,235.4,109z"/>
<g>
	<path class="st0" d="M347.6,37.1C324.7,14.2,293,0,258.1,0c-34.9,0-66.6,14.2-89.5,37.1c-22.9,22.9-37.1,54.6-37.1,89.5
		c0,32.8,12.5,62.7,33,85.2c-7.7,7.8-15.2,15.2-22.7,22.7c-10-7.3-18-6.7-27,2.3c-34.5,34.5-68.9,68.9-103.4,103.3
		c-5,5-9.5,10.1-11.4,17.2c0,2.8,0,5.5,0,8.2c2.2,7.1,5.7,13.2,12.7,16.7c2.2,1.1,4.6,1.9,6.8,2.8c2.8,0,5.5,0,8.2,0
		c7.2-1.9,12.5-6.3,17.4-11.7c3.5-3.8,7.2-7.3,10.8-10.9c31.1-31.1,62.2-62.2,93.3-93.3c7.7-7.7,8.2-16.6,1.7-25.2
		c-0.3-0.4-0.5-0.8-0.4-0.6c7.7-7.8,15.2-15.2,22.7-22.8c22.4,20.3,52.2,32.6,84.8,32.6c34.9,0,66.6-14.2,89.5-37.1
		c22.9-22.9,37.1-54.6,37.1-89.5C384.7,91.7,370.5,60,347.6,37.1z M123,279.7c-29.9,29.9-59.8,59.9-89.8,89.8
		c-4.5,4.5-9.6,5.5-14.7,3.2c-4.6-2.1-7.8-6.7-7.1-11.7c0.4-2.9,1.6-6.3,3.6-8.3c30.5-30.8,61.2-61.3,91.8-92
		c5.9,5.9,11.5,11.5,17.3,17.4C124,278.4,123.5,279.1,123,279.7z M142.4,260.1c-3,3.3-6.2,6.5-9.3,9.7c-6.1-6.1-11.8-11.8-17.7-17.7
		c3.2-3.2,6.4-6.6,9.9-9.7c2.4-2.1,5.5-2.1,7.9,0.1c3.3,2.9,6.4,6,9.3,9.2C144.9,254.3,144.8,257.5,142.4,260.1z M370.7,126.6
		c0,15.6-3.2,30.4-8.8,43.8c-8.5,20.2-22.8,37.4-40.8,49.6c-18,12.1-39.6,19.2-63,19.2c-31.1,0-59.2-12.6-79.6-33
		c-20.4-20.4-33-48.5-33-79.6c0-31.1,12.6-59.2,33-79.6c20.4-20.4,48.5-33,79.6-33c31.1,0,59.2,12.6,79.6,33
		c10.2,10.2,18.4,22.3,24.1,35.8C367.6,96.2,370.7,111,370.7,126.6z"/>
	<path class="st0" d="M258.1,23.5c-14.2,0-27.8,2.9-40.1,8.1c-18.5,7.8-34.2,20.9-45.4,37.4c-11.1,16.5-17.6,36.3-17.6,57.7
		c0,14.2,2.9,27.8,8.1,40.1c7.8,18.5,20.9,34.2,37.4,45.4c16.5,11.1,36.3,17.6,57.7,17.6c28.5,0,54.3-11.6,72.9-30.2
		c18.7-18.6,30.2-44.5,30.2-72.9c0-28.5-11.6-54.3-30.2-72.9C312.4,35,286.6,23.5,258.1,23.5z M347.2,126.6c0,12.3-2.5,24-7,34.7
		c-6.8,16-18.1,29.6-32.3,39.2c-14.2,9.6-31.3,15.2-49.8,15.2c-12.3,0-24-2.5-34.7-7c-16-6.8-29.6-18.1-39.2-32.3
		c-9.6-14.2-15.2-31.3-15.2-49.8c0-12.3,2.5-24,7-34.7c6.8-16,18.1-29.6,32.3-39.2c14.2-9.6,31.3-15.2,49.8-15.2
		c12.3,0,24,2.5,34.7,7c16,6.8,29.6,18.1,39.2,32.3C341.6,91,347.2,108.1,347.2,126.6z"/>
</g>
</svg>
